<svg width="22" height="22" viewBox="0 0 22 22" fill="none" xmlns="http://www.w3.org/2000/svg">
<path d="M11 0C8.82443 0 6.69769 0.64514 4.88874 1.85384C3.0798 3.06254 1.6699 4.7805 0.837332 6.7905C0.00476613 8.80049 -0.213071 11.0122 0.211367 13.146C0.635806 15.2798 1.68346 17.2398 3.22184 18.7782C4.76022 20.3166 6.72023 21.3642 8.85403 21.7887C10.9878 22.2131 13.1996 21.9953 15.2096 21.1627C17.2195 20.3302 18.9375 18.9202 20.1462 17.1113C21.3549 15.3024 22 13.1756 22 11C22 9.55548 21.7155 8.12508 21.1627 6.7905C20.6099 5.45591 19.7997 4.24328 18.7782 3.22183C17.7568 2.20039 16.5441 1.39013 15.2096 0.837327C13.875 0.284524 12.4446 0 11 0ZM15.73 8.37102L10.703 14.971C10.6006 15.1041 10.469 15.212 10.3183 15.2864C10.1677 15.3608 10.002 15.3996 9.83402 15.4C9.66694 15.4009 9.50185 15.3638 9.35128 15.2913C9.20071 15.2189 9.06861 15.1131 8.96502 14.982L6.28102 11.561C6.19218 11.4469 6.12669 11.3164 6.08828 11.177C6.04987 11.0375 6.03931 10.8919 6.05718 10.7484C6.07506 10.6049 6.12103 10.4663 6.19246 10.3406C6.2639 10.2148 6.3594 10.1044 6.47352 10.0155C6.70399 9.8361 6.9963 9.75558 7.28614 9.79169C7.42965 9.80956 7.56824 9.85553 7.69399 9.92696C7.81973 9.9984 7.93018 10.0939 8.01902 10.208L9.81202 12.496L13.97 6.99601C14.0581 6.88045 14.1682 6.78337 14.2938 6.71033C14.4194 6.63728 14.5582 6.5897 14.7022 6.57029C14.8463 6.55088 14.9927 6.56003 15.1332 6.59722C15.2737 6.6344 15.4055 6.6989 15.521 6.78701C15.6366 6.87513 15.7337 6.98515 15.8067 7.11078C15.8798 7.23641 15.9274 7.37521 15.9468 7.51923C15.9662 7.66325 15.957 7.80969 15.9198 7.95018C15.8826 8.09067 15.8182 8.22245 15.73 8.33802V8.37102Z" fill="#008009"/>
</svg>
